<svg width="63" height="63" viewBox="0 0 63 63" fill="none" xmlns="http://www.w3.org/2000/svg">
<path d="M55.125 42V21C55.1241 20.0793 54.881 19.1751 54.4203 18.378C53.9596 17.581 53.2973 16.9191 52.5 16.4587L34.125 5.95874C33.3269 5.49795 32.4216 5.25537 31.5 5.25537C30.5784 5.25537 29.6731 5.49795 28.875 5.95874L10.5 16.4587C9.70269 16.9191 9.04045 17.581 8.57971 18.378C8.11897 19.1751 7.87594 20.0793 7.875 21V42C7.87594 42.9206 8.11897 43.8249 8.57971 44.6219C9.04045 45.419 9.70269 46.0809 10.5 46.5412L28.875 57.0412C29.6731 57.502 30.5784 57.7446 31.5 57.7446C32.4216 57.7446 33.3269 57.502 34.125 57.0412L52.5 46.5412C53.2973 46.0809 53.9596 45.419 54.4203 44.6219C54.881 43.8249 55.1241 42.9206 55.125 42Z" stroke="#B6B440" stroke-width="2" stroke-linecap="round" stroke-linejoin="round"/>
<path d="M19.6875 11.0512L31.5 17.8762L43.3125 11.0512" stroke="#B6B440" stroke-width="2" stroke-linecap="round" stroke-linejoin="round"/>
<path d="M19.6875 51.9488V38.325L7.875 31.5" stroke="#B6B440" stroke-width="2" stroke-linecap="round" stroke-linejoin="round"/>
<path d="M55.125 31.5L43.3125 38.325V51.9488" stroke="#B6B440" stroke-width="2" stroke-linecap="round" stroke-linejoin="round"/>
<path d="M8.58374 18.27L31.5 31.5262L54.4162 18.27" stroke="#B6B440" stroke-width="2" stroke-linecap="round" stroke-linejoin="round"/>
<path d="M31.5 57.96V31.5" stroke="#B6B440" stroke-width="2" stroke-linecap="round" stroke-linejoin="round"/>
</svg>
